<?xml version="1.0" encoding="utf-8"?>
<!-- Generator: Adobe Illustrator 27.0.1, SVG Export Plug-In . SVG Version: 6.00 Build 0)  -->
<svg version="1.1" id="Layer_1" xmlns="http://www.w3.org/2000/svg" xmlns:xlink="http://www.w3.org/1999/xlink" x="0px" y="0px"
	 viewBox="0 0 446.276 107.89" enable-background="new 0 0 446.276 107.89" xml:space="preserve">
<g>
	<polygon fill="#231F20" points="198.349,17.607 162.043,50.095 125.737,17.607 122.748,18.943 122.748,89.408 124.541,91.201 
		139.61,91.201 141.404,89.408 141.404,58.583 160.908,74.536 163.246,74.478 182.683,56.908 182.683,89.408 184.476,91.201 
		199.545,91.201 201.338,89.408 201.338,18.943 	"/>
	<polygon fill="#231F20" points="421.885,17.649 406.537,17.649 404.744,19.443 404.744,89.403 406.537,91.196 421.885,91.196 
		423.679,89.403 423.679,19.443 	"/>
	<polygon fill="#231F20" points="362.354,17.884 359.179,17.884 322.438,88.574 324.026,91.202 341.524,91.202 343.112,90.242 
		360.767,56.622 378.421,90.242 380.009,91.202 397.507,91.202 399.094,88.574 	"/>
	<polygon fill="#231F20" points="234.81,17.649 219.418,17.649 217.624,19.443 217.624,89.408 219.418,91.201 234.81,91.201 
		236.603,89.408 236.603,19.443 	"/>
	<path fill="#231F20" d="M300.94,65.225c3.823-1.777,7.024-4.311,9.538-7.551c3.002-3.871,4.524-8.898,4.524-14.942v-0.2
		c0-7.125-2.195-12.932-6.523-17.26c-5.059-5.057-12.346-7.622-21.658-7.622h-31.984l-1.793,1.793v69.965l1.793,1.793h15.392
		l1.793-1.793V68.813h9.343l14.46,21.593l1.49,0.796h17.991l1.48-2.806L300.94,65.225z M295.824,43.331v0.2
		c0,2.483-0.799,4.398-2.444,5.853c-1.686,1.492-4.228,2.248-7.556,2.248h-13.799V35.129h13.499c3.368,0,5.99,0.713,7.791,2.118
		C295.003,38.567,295.824,40.557,295.824,43.331z"/>
	<g>
		
			<ellipse transform="matrix(0.9871 -0.1602 0.1602 0.9871 -7.9605 9.5998)" fill="#EE3560" cx="55.563" cy="54.175" rx="51.176" ry="51.175"/>
		<g>
			<polygon fill="#FFFFFF" points="47.327,53.067 50.758,59.601 43.621,73.193 53.231,73.193 55.563,68.752 57.895,73.193 
				67.506,73.193 60.369,59.601 63.8,53.067 74.368,73.193 83.979,73.193 63.8,34.766 55.563,50.451 47.327,34.766 27.147,73.193 
				36.758,73.193 			"/>
		</g>
	</g>
	<path fill="#231F20" d="M435.697,91.196h0.7c0.156,0,0.352-0.156,0.37-0.311l0.468-2.453l1.189,2.628
		c0.058,0.117,0.156,0.195,0.33,0.195h0.116c0.156,0,0.272-0.078,0.312-0.175l1.247-2.648l0.428,2.433
		c0.04,0.175,0.196,0.331,0.37,0.331h0.758c0.236,0,0.41-0.195,0.37-0.429l-1.03-5.509c-0.022-0.156-0.178-0.292-0.37-0.292h-0.08
		c-0.156,0-0.272,0.078-0.33,0.214l-1.733,3.602l-1.693-3.602c-0.04-0.097-0.156-0.214-0.334-0.214h-0.076
		c-0.236,0-0.352,0.136-0.37,0.292l-1.012,5.49C435.288,90.982,435.444,91.196,435.697,91.196L435.697,91.196z M431.937,91.196
		h0.761c0.192,0,0.366-0.176,0.366-0.37v-4.324h1.247c0.214,0,0.37-0.156,0.37-0.369v-0.7c0-0.194-0.156-0.369-0.37-0.369h-3.988
		c-0.196,0-0.37,0.175-0.37,0.369v0.7c0,0.214,0.174,0.369,0.37,0.369h1.247v4.323C431.571,91.021,431.723,91.196,431.937,91.196
		L431.937,91.196L431.937,91.196z"/>
</g>
</svg>
